<svg width="1527" height="1589" viewBox="0 0 1527 1589" fill="none" xmlns="http://www.w3.org/2000/svg">
<g opacity="0.5">
<path d="M1490.14 710.318L816.859 36.869C770.379 -9.62297 695.02 -9.62298 648.539 36.8689L438.139 247.322C391.659 293.814 391.659 369.192 438.139 415.684L1111.42 1089.13C1157.9 1135.62 1233.26 1135.62 1279.74 1089.13L1490.14 878.68C1536.62 832.188 1536.62 756.81 1490.14 710.318Z" stroke="#E5E5EA" stroke-width="3"/>
<path d="M1027.26 1173.31L816.859 962.862C770.379 916.37 695.02 916.37 648.539 962.862L438.139 1173.31C391.657 1219.81 391.657 1295.19 438.138 1341.68L648.538 1552.13C695.018 1598.62 770.377 1598.62 816.859 1552.13L1027.26 1341.68C1073.74 1295.18 1073.74 1219.81 1027.26 1173.31Z" stroke="#E5E5EA" stroke-width="3"/>
<path d="M80.4183 983.867C184.977 1088.45 354.501 1088.45 459.06 983.865C563.619 879.28 563.619 709.715 459.06 605.13C354.501 500.545 184.979 500.545 80.4199 605.13C-24.1389 709.715 -24.1405 879.282 80.4183 983.867Z" stroke="#E5E5EA" stroke-width="3"/>
</g>
</svg>
