<svg width="120" height="34" viewBox="0 0 120 34" fill="none" xmlns="http://www.w3.org/2000/svg">
<path d="M29.7565 0.318359H3.30628C1.48027 0.318359 0 1.79863 0 3.62464V11.8903C0 13.7164 1.48027 15.1966 3.30628 15.1966H29.7565C31.5826 15.1966 33.0628 13.7164 33.0628 11.8903V3.62464C33.0628 1.79863 31.5826 0.318359 29.7565 0.318359Z" fill="#F9A619"/>
<path d="M29.757 18.5039H21.4913C19.6653 18.5039 18.1851 19.9842 18.1851 21.8102V30.0759C18.1851 31.902 19.6653 33.3822 21.4913 33.3822H29.757C31.5831 33.3822 33.0633 31.902 33.0633 30.0759V21.8102C33.0633 19.9842 31.5831 18.5039 29.757 18.5039Z" fill="#3B85DB"/>
<path d="M7.43756 33.3815C11.5452 33.3815 14.8751 30.0516 14.8751 25.9439C14.8751 21.8362 11.5452 18.5063 7.43756 18.5063C3.3299 18.5063 0 21.8362 0 25.9439C0 30.0516 3.3299 33.3815 7.43756 33.3815Z" fill="#EB3669"/>
<path d="M54.6486 26.3251C50.5929 26.3251 47.4913 24.3539 47.274 20.8713C47.2712 20.8212 47.2787 20.771 47.2961 20.7239C47.3134 20.6768 47.3401 20.6337 47.3748 20.5973C47.4088 20.5604 47.4504 20.531 47.4963 20.5109C47.5423 20.4909 47.5921 20.4806 47.6424 20.4808H50.4764C50.568 20.4805 50.6565 20.5146 50.7242 20.5765C50.7919 20.6383 50.8338 20.7233 50.8417 20.8146C51.0117 22.6724 52.5861 23.6171 54.6486 23.6171C56.7111 23.6171 57.9643 22.833 57.9643 21.2932C57.9643 17.1557 47.6046 20.4399 47.6046 13.566C47.6046 10.4549 50.4386 8.52783 54.1353 8.52783C57.9643 8.52783 60.8865 10.7541 61.1289 13.7045C61.1321 13.7549 61.1251 13.8054 61.1084 13.8531C61.0918 13.9007 61.0653 13.9444 61.0313 13.9816C60.997 14.0192 60.9551 14.0493 60.9085 14.0699C60.8619 14.0904 60.8115 14.1012 60.7605 14.1013H57.9265C57.8381 14.1015 57.7524 14.0697 57.6853 14.0119C57.6183 13.9541 57.5742 13.874 57.5613 13.7864C57.3818 12.3127 55.9869 11.2673 54.129 11.2673C52.2712 11.2673 51.0526 12.0545 51.0526 13.4211C51.0526 17.1997 61.4784 14.1737 61.4784 21.1484C61.4847 24.3759 58.613 26.3251 54.6486 26.3251Z" fill="#212121"/>
<path d="M63.5728 17.0771C63.5724 15.9562 63.7929 14.8463 64.2217 13.8108C64.6509 12.7752 65.2797 11.8344 66.0726 11.0422C66.8655 10.2499 67.8067 9.62171 68.8423 9.19356C69.8783 8.76538 70.9883 8.54565 72.1093 8.54688C74.4344 8.5494 76.6631 9.47475 78.3065 11.1197C79.9496 12.7646 80.8725 14.9945 80.8725 17.3195V17.7982C80.8725 18.9182 80.6517 20.0273 80.2232 21.0621C79.7943 22.0968 79.1661 23.037 78.3739 23.8288C77.5816 24.6207 76.6414 25.2487 75.6064 25.677C74.5717 26.1054 73.4623 26.3256 72.3423 26.3252C70.0165 26.3252 67.7859 25.4013 66.1413 23.7567C64.4966 22.1121 63.5728 19.8815 63.5728 17.5557V17.0771ZM77.4623 17.4361C77.4623 13.9723 75.2046 11.6926 72.2321 11.6926C69.2596 11.6926 66.9987 13.9849 66.9987 17.4361C66.9987 20.8872 69.2564 23.1795 72.2321 23.1795C75.2077 23.1795 77.4623 20.8903 77.4623 17.4361Z" fill="#212121"/>
<path d="M113.013 25.9851H109.962C109.912 25.9864 109.863 25.9778 109.817 25.9599C109.771 25.942 109.729 25.9151 109.694 25.8808C109.658 25.8465 109.63 25.8055 109.61 25.7601C109.591 25.7148 109.581 25.6661 109.581 25.6167V9.25849C109.581 9.16078 109.619 9.06707 109.689 8.99799C109.758 8.9289 109.851 8.89008 109.949 8.89008H112.632C112.729 8.89008 112.823 8.9289 112.892 8.99799C112.961 9.06707 113 9.16078 113 9.25849V11.9665C113.576 10.9263 114.422 10.0602 115.448 9.4591C116.474 8.85802 117.643 8.54402 118.832 8.55C119.117 8.54783 119.402 8.56361 119.685 8.59724C119.773 8.60948 119.854 8.65328 119.912 8.72051C119.97 8.78774 120.001 8.87377 120 8.9625V11.8909C120 11.9465 119.988 12.0015 119.964 12.0517C119.94 12.1018 119.905 12.1459 119.862 12.1806C119.818 12.2151 119.766 12.2392 119.712 12.2512C119.657 12.2632 119.601 12.2627 119.547 12.2499C119.099 12.1521 118.642 12.1036 118.183 12.105C116.805 12.105 115.484 12.6524 114.509 13.6268C113.535 14.6012 112.988 15.9227 112.988 17.3006V25.9851H113.013Z" fill="#212121"/>
<path d="M91.5876 9.33087C91.5876 9.21396 91.541 9.10183 91.4585 9.01917C91.3757 8.93648 91.2636 8.89004 91.1468 8.89004H88.8355V6.32688C88.8365 5.48397 89.1718 4.67582 89.7682 4.08009C90.3646 3.48433 91.1729 3.1497 92.0159 3.1497C92.5647 3.14639 93.112 3.20663 93.647 3.32918C93.7011 3.34181 93.7578 3.34213 93.8123 3.33016C93.8667 3.31816 93.9178 3.29417 93.9618 3.25991C94.0053 3.22521 94.0403 3.18113 94.0642 3.13096C94.0884 3.08077 94.1007 3.02582 94.1004 2.97022V0.592845C94.1004 0.509832 94.0727 0.429215 94.0211 0.364059C93.9697 0.298907 93.8976 0.253035 93.817 0.233877C93.1485 0.0882746 92.4671 0.0102117 91.7829 0.000862146C90.9519 -0.0129257 90.1266 0.138785 89.3548 0.447157C88.5833 0.75553 87.8805 1.21439 87.2879 1.79701C86.6953 2.37964 86.2248 3.07435 85.9033 3.84071C85.5818 4.60708 85.4162 5.42974 85.4159 6.26075V8.89004H82.8464C82.7488 8.89004 82.655 8.92886 82.586 8.99795C82.5168 9.06703 82.478 9.16074 82.478 9.25845V11.5319C82.478 11.5802 82.4875 11.6279 82.5061 11.6724C82.5246 11.7169 82.5517 11.7574 82.586 11.7913C82.6204 11.8253 82.661 11.8521 82.7057 11.8703C82.7504 11.8885 82.7983 11.8976 82.8464 11.8972H85.4159V25.6167C85.4168 25.7141 85.4559 25.8074 85.5245 25.8763C85.5935 25.9452 85.6867 25.9843 85.7843 25.9851H88.4829C88.5805 25.9851 88.6743 25.9463 88.7433 25.8772C88.8125 25.8081 88.8513 25.7144 88.8513 25.6167V11.8972H91.1625C91.2794 11.8972 91.3914 11.8507 91.4743 11.7681C91.5568 11.6854 91.6034 11.5733 91.6034 11.4563L91.5876 9.33087Z" fill="#212121"/>
<path d="M107.032 8.88992H102.476V4.48155C102.478 4.43161 102.471 4.38166 102.453 4.33475C102.436 4.28786 102.409 4.24497 102.375 4.20873C102.34 4.17249 102.299 4.14368 102.253 4.12396C102.207 4.10428 102.157 4.09418 102.107 4.09424H99.4244C99.3268 4.09424 99.2329 4.13306 99.164 4.20215C99.0947 4.27123 99.056 4.36494 99.056 4.46265V8.87103H94.6728C94.556 8.87103 94.4439 8.91747 94.361 9.00016C94.2785 9.08282 94.2319 9.19495 94.2319 9.31187V11.4373C94.2316 11.4953 94.2426 11.5529 94.2647 11.6065C94.2867 11.6602 94.3192 11.709 94.3601 11.75C94.401 11.791 94.4498 11.8235 94.5037 11.8455C94.5572 11.8675 94.6148 11.8786 94.6728 11.8782H99.056V25.6166C99.056 25.7143 99.0947 25.808 99.164 25.8771C99.2329 25.9461 99.3268 25.985 99.4244 25.985H102.107C102.205 25.985 102.299 25.9461 102.368 25.8771C102.437 25.808 102.476 25.7143 102.476 25.6166V11.8971H107.032C107.129 11.8971 107.222 11.8586 107.29 11.7901C107.359 11.7216 107.397 11.6287 107.397 11.5318V9.25834C107.398 9.2101 107.388 9.16227 107.37 9.11758C107.352 9.0729 107.325 9.03228 107.291 8.99802C107.257 8.96376 107.217 8.93659 107.172 8.91804C107.128 8.89946 107.08 8.88992 107.032 8.88992Z" fill="#212121"/>
</svg>
